<?xml version="1.0" encoding="UTF-8"?>
<svg id="pictogram"
     xmlns="http://www.w3.org/2000/svg"
     version="1.1"
     viewBox="0 0 100 100">

  <!-- Metadatos para accesibilidad -->
  <title>Maori Symbols</title>
  <desc>
    Elemental semantic units
  </desc>

  <!-- Estilos centralizados fuera de <defs> -->
  <style type="text/css"><![CDATA[
    .white-with-black-stroke {
      fill: #fff;
      stroke: #000;
      stroke-linejoin: square;
    }
    .black-with-white-stroke {
      fill: #000;
      stroke: #fff;
      stroke-linejoin: square;
    }
  ]]></style>

  <defs>
       <!-- Koru -->
    <g id="koru">
      <path d="M 0 50 C 40 50, 40 10, 25 10 C 18 10, 12 18, 25 18 C 32 18, 38 25, 25 25"/>
    </g>

    <!-- Koiri -->
    <g id="koiri">
      <path d="M 20 80 C 80 80, 80 20, 50 20 C 30 20, 20 40, 50 40 C 80 40, 80 70, 50 70 C 35 70, 25 55, 50 55"/>
    </g>

    <!-- Rauru -->
    <g id="rauru">
      <path d="M 50 50 m -40, 0 a 40,40 0 1,0 80,0 a 40,40 0 1,0 -80,0"/>
      <path d="M 50 50 m -20, 0 a 20,20 0 1,1 40,0 a 20,20 0 1,1 -40,0"/>
    </g>

    <!-- Kape -->
    <g id="kape">
      <path d="M 20 50 Q 50 20, 80 50 Q 50 80, 20 50 Z" fill="black" stroke="none"/>
    </g>

    <!-- Manaia (Perfil) -->
    <g id="manaia-profile">
      <path d="M 60 20 Q 90 30, 90 50 T 60 80 L 40 70 L 50 50 L 40 30 Z" />
      <circle cx="75" cy="40" r="4" fill="black"/>
    </g>

    <!-- Tiki (Esquema) -->
    <g id="tiki-outline">
      <rect x="30" y="10" width="40" height="30" rx="15"/>
      <rect x="20" y="45" width="60" height="45" rx="10"/>
      <line x1="20" y1="60" x2="0" y2="70" />
      <line x1="80" y1="60" x2="100" y2="70" />
    </g>
  </defs>
  
  <use href="#koru" x="0" y="0" width="30" height="30" transform="scale(.5)" class="white-with-black-stroke"/>
  <use href="#koiri" x="30" y="0" width="20" height="30" class="white-with-black-stroke"/>
  <use href="#rauru" x="80" y="70" width="20" height="20" class="white-with-black-stroke"/>
  <use href="#kape" x="90" y="90" width="10" height="10" class="white-with-black-stroke"/>
  <use href="#manaia-profile" x="15" y="30" width="20" height="20" class="white-with-black-stroke"/>
  <use href="#tiki-outline" x="40" y="50" width="20" height="20" class="white-with-black-stroke"/>


</svg>
